<svg width="412" height="470" viewBox="0 0 412 470" fill="none" xmlns="http://www.w3.org/2000/svg">
<path d="M82.0825 77.4525H72L78.7217 66.693H94.5177M82.0825 77.4525L118.38 113.766L143.162 242.954C143.603 245.253 145.614 246.915 147.955 246.915V246.915M82.0825 77.4525L94.5177 66.693M147.955 246.915V268.434M147.955 246.915L179.211 246.679M147.955 268.434V268.434C145.62 268.434 143.619 270.104 143.202 272.402L112.055 444.108C111.498 447.176 113.856 450 116.974 450H145.939M147.955 268.434H179.211M264.241 268.434H266.788C269.205 268.434 271.276 270.163 271.707 272.541L302.83 444.108C303.386 447.176 301.029 450 297.91 450H270.962M264.241 268.434V246.242M264.241 268.434H237.354M264.241 246.242H265.455C267.867 246.242 269.935 244.52 270.372 242.148L296.16 102.187C296.36 101.103 297.305 100.316 298.407 100.316H308.083C325.447 100.316 339.524 114.393 339.524 131.757V131.757C339.524 134.986 339.026 138.196 338.048 141.274L319.621 199.291C318.16 203.891 321.594 208.584 326.42 208.584V208.584C329.44 208.584 332.133 206.682 333.143 203.837L352.22 150.095C355.383 141.184 357 131.797 357 122.341V112.225C357 104.421 354.964 96.7522 351.094 89.9759V89.9759C343.108 75.9946 328.242 67.3655 312.141 67.3655H303.226M264.241 246.242H237.354M303.226 67.3655L217.189 51.2263M303.226 67.3655L270.962 67.253M217.189 51.2263L220.336 30.76C220.802 27.7313 218.458 25 215.394 25H198.295C195.18 25 192.824 27.8171 193.374 30.8829L197.024 51.2263M217.189 51.2263H197.024M197.024 51.2263L110.314 66.693M110.314 66.693L145.939 66.8172M110.314 66.693H94.5177M270.962 67.253L237.354 246.242M270.962 67.253L210.467 67.0422M237.354 246.242L210.467 246.444M210.467 246.444V67.0422M210.467 246.444L179.211 246.679M210.467 67.0422L145.939 66.8172M145.939 66.8172L179.211 246.679M179.211 268.434L145.939 450M179.211 268.434H207.106M145.939 450H207.106M207.106 450V268.434M207.106 450H270.962M207.106 268.434H237.354M237.354 268.434L270.962 450M80.066 68.7104H88.8856L80.066 76.1076L76.033 75.4351L80.066 68.7104ZM80.066 68.7104L81.8129 70.2309L80.9596 71.9378L79.253 74.0713L81.4104 74.0902L85.226 69.8042M92.1651 77.4525C96.4222 83.5048 107.625 96.4161 118.38 99.644M153.333 263.726H176.858M185.597 263.726H190.302M199.04 263.726H222.566M236.009 263.726H244.075M249.453 263.726H251.469M147.955 274.5L143.922 297.5M117 445L123.5 414.5M122.5 445L127 422.5M150 291.5L146 312.5M123.5 113.766L129 143.5M143.922 216L147.955 237M290 102.5L276.5 169.5M310.5 72C321.167 72.711 343.8 79.3696 349 100.316M351 136.63L346 152M158.5 62.5C158.5 62.5 181.979 57.9289 197.024 55M183 62.5C183 62.5 186.352 61.8905 188.5 61.5M198 34.5C197.5 30.5 195 28 202 28.5M237.354 93.5918C241.387 93.5918 244.075 95.6092 244.075 99.644C244.075 103.679 242.731 107.041 238.026 107.041C233.321 107.041 230.632 106.369 230.632 100.316C230.632 95.6092 233.321 93.5918 237.354 93.5918Z" stroke="#78350F" stroke-width="10"/>
<path d="M405 5H8L84.792 254L8 465H405L343.663 254L405 5Z" stroke="#78350F" stroke-width="10"/>
<path d="M26.5 16H76L42 59.5L26.5 16Z" fill="#78350F"/>
<path d="M40.5 67L100 252.5L27.5 451" stroke="#78350F" stroke-width="5"/>
</svg>
